<svg viewBox="0 0 155.001 24.3328" fill="none" xmlns="http://www.w3.org/2000/svg">
<g id="Vector">
<path d="M6.03598 1.66805L8.03715 7.50987L12.0714 19.0985H16.8919L10.8565 1.66805H6.03598Z" fill="#C8D8FA"/>
<path d="M10.8565 1.66805L8.8547 7.51004L4.82049 19.0987H0L6.03598 1.66805H10.8565Z" fill="#3E80DD"/>
<path d="M29.3107 11.6783V17.7792C29.3107 18.7999 28.6633 19.3229 27.8169 19.3229C26.9705 19.3229 26.3477 18.7999 26.3477 17.7792V11.9524C26.3477 9.83577 25.003 8.71526 23.4346 8.71526C21.8663 8.71526 20.5215 9.83577 20.5215 11.9524V17.7792C20.5215 18.7999 19.8741 19.3229 19.0523 19.3229C18.2306 19.3229 17.5585 18.7999 17.5585 17.7792V11.6783C17.5585 7.76908 20.3971 5.80156 23.4352 5.80156C26.4733 5.80156 29.3119 7.76847 29.3119 11.6783H29.3107Z" fill="var(--fill-0, #F7FAFC)"/>
<path d="M43.5527 1.54371V12.8486C43.5527 17.0319 40.8633 19.3229 37.203 19.3229C33.5427 19.3229 30.4053 17.1065 30.4053 12.5499C30.4053 8.83968 32.995 6.02577 37.0286 6.02577H38.1738C39.12 6.02577 39.5931 6.69784 39.5931 7.47029C39.5931 8.24275 39.12 8.93946 38.1738 8.93946H37.0286C34.763 8.93946 33.4681 10.4086 33.4681 12.5499C33.4681 15.1396 35.1862 16.4092 37.0539 16.4092C38.9216 16.4092 40.5898 15.1143 40.5898 12.5499V1.54371C40.5898 0.522987 41.2372 0 42.0836 0C42.93 0 43.5527 0.522987 43.5527 1.54371Z" fill="var(--fill-0, #F7FAFC)"/>
<path d="M57.8195 17.7787C57.8195 18.7994 57.1721 19.3224 56.3503 19.3224C55.5286 19.3224 54.8565 18.7994 54.8565 17.7787V12.5494C54.8565 10.0096 53.1385 8.71476 51.3206 8.71476C49.5028 8.71476 47.7349 9.98496 47.7349 12.574C47.7349 14.7153 49.0297 16.1845 51.2954 16.1845H52.4406C53.3867 16.1845 53.8598 16.8818 53.8598 17.6536C53.8598 18.4255 53.3867 19.0975 52.4406 19.0975H51.2954C47.2618 19.0975 44.6721 16.2836 44.6721 12.5734C44.6721 8.01684 47.9339 5.80046 51.4697 5.80046C55.0056 5.80046 57.8195 8.09138 57.8195 12.2747V17.7787Z" fill="var(--fill-0, #F7FAFC)"/>
<path d="M67.3805 7.47039C67.3805 8.24224 66.9074 8.93956 65.9859 8.93956H65.0643C63.5206 8.93956 62.2258 9.83585 62.2258 11.9524V17.7792C62.2258 18.8 61.5784 19.3229 60.7566 19.3229C59.9349 19.3229 59.2628 18.8 59.2628 17.7792V11.6783C59.2628 7.76915 62.0268 6.02586 65.0643 6.02586H65.9859C66.9074 6.02586 67.3805 6.69793 67.3805 7.47039Z" fill="var(--fill-0, #F7FAFC)"/>
<path d="M72.2112 16.5386L73.1357 15.6393C74.4348 17.4132 76.0338 18.1875 78.2069 18.1875C80.5303 18.1875 82.154 17.0135 82.154 15.0646C82.154 9.86838 73.36 12.2663 73.36 6.14616C73.36 3.54806 75.4086 1.8745 78.3067 1.8745C80.4804 1.8745 82.2537 2.7738 83.4277 4.29768L82.5032 5.19697C81.429 3.84803 80.1047 3.09841 78.2814 3.09841C76.133 3.09841 74.7089 4.22253 74.7089 6.07102C74.7089 10.9426 83.4777 8.64447 83.4777 14.9149C83.4777 17.813 81.429 19.412 78.1564 19.412C75.5084 19.412 73.61 18.3624 72.2112 16.5386Z" fill="var(--fill-0, #F7FAFC)"/>
<path d="M85.2017 13.3404C85.2017 9.91756 87.7499 7.29481 91.1475 7.29481C94.2951 7.29481 96.5439 9.59295 96.5439 12.8409C96.5439 13.0405 96.5187 13.3657 96.4441 13.8153H86.5014C86.7262 16.4886 88.6246 18.212 91.373 18.212C92.8716 18.212 94.1959 17.6626 95.0705 16.5631L95.9199 17.3873C94.8457 18.6617 93.1722 19.4107 91.2984 19.4107C87.801 19.4107 85.2029 16.8126 85.2029 13.3398L85.2017 13.3404ZM86.5008 12.7158H95.2948C95.2449 10.1676 93.6212 8.46883 91.1229 8.46883C88.6246 8.46883 86.7256 10.1676 86.5008 12.7158Z" fill="var(--fill-0, #F7FAFC)"/>
<path d="M98.1171 13.1907C98.1171 9.84302 100.565 7.29481 103.838 7.29481C105.911 7.29481 107.61 8.26925 108.46 9.89291V7.54489H109.733V18.7115C109.733 22.0839 107.285 24.3328 103.638 24.3328C101.364 24.3328 99.466 23.4581 98.3665 21.8597L99.166 21.0602C100.065 22.334 101.639 23.1335 103.663 23.1335C106.61 23.1335 108.459 21.4347 108.459 18.7115V16.488C107.61 18.1116 105.961 19.0861 103.887 19.0861C100.565 19.0861 98.1171 16.5883 98.1171 13.1907ZM108.535 13.1907C108.535 10.4177 106.711 8.49408 104.063 8.49408C101.415 8.49408 99.4161 10.443 99.4161 13.1655C99.4161 15.888 101.365 17.912 104.113 17.912C106.861 17.912 108.535 16.0389 108.535 13.1907Z" fill="var(--fill-0, #F7FAFC)"/>
<path d="M112.606 14.3148V7.54485H113.88V14.2649C113.88 16.613 115.279 18.212 117.427 18.212C119.576 18.212 120.95 16.6382 120.95 14.2649V7.54485H122.224V14.3148C122.224 17.3127 120.251 19.4112 117.428 19.4112C114.605 19.4112 112.606 17.3379 112.606 14.3148Z" fill="var(--fill-0, #F7FAFC)"/>
<path d="M125.097 7.54489H126.371V9.24369C127.071 7.99453 128.295 7.29481 129.818 7.29481C130.968 7.29481 131.942 7.66932 132.766 8.56862L131.917 9.46791C131.292 8.79344 130.568 8.49347 129.594 8.49347C127.695 8.49347 126.371 9.81777 126.371 12.2157V19.1606H125.097V7.54489Z" fill="var(--fill-0, #F7FAFC)"/>
<path d="M133.066 13.3155C133.066 9.91793 135.689 7.29518 139.086 7.29518C142.483 7.29518 145.082 9.91853 145.082 13.3155C145.082 16.7125 142.434 19.411 139.086 19.411C135.738 19.411 133.066 16.7378 133.066 13.3155ZM143.758 13.2903C143.758 10.5425 141.759 8.49384 139.087 8.49384C136.414 8.49384 134.365 10.5672 134.365 13.3155C134.365 16.0639 136.389 18.2118 139.087 18.2118C141.785 18.2118 143.758 16.1132 143.758 13.2903Z" fill="var(--fill-0, #F7FAFC)"/>
<path d="M146.431 17.3127L147.281 16.4633C148.23 17.6872 149.479 18.2619 150.978 18.2619C152.702 18.2619 153.777 17.5123 153.777 16.2631C153.777 12.8655 147.156 14.6395 147.156 10.3925C147.156 8.54397 148.63 7.29481 151.004 7.29481C152.702 7.29481 154.176 7.91939 155.001 9.06876L154.176 9.91816C153.502 8.99362 152.328 8.44418 150.929 8.44418C149.255 8.44418 148.38 9.24369 148.38 10.3179C148.38 13.4408 155.001 11.6921 155.001 16.1387C155.001 18.1375 153.402 19.4113 150.954 19.4113C149.055 19.4113 147.456 18.5871 146.431 17.3127Z" fill="var(--fill-0, #F7FAFC)"/>
</g>
</svg>
