<svg preserveAspectRatio="none" width="100%" height="100%" overflow="visible" style="display: block;" viewBox="0 0 82.79 22.4583" fill="none" xmlns="http://www.w3.org/2000/svg">
<g id="Group">
<path id="Vector" d="M0.000601721 14.6641L0.925146 13.7648C2.2242 15.5387 3.82321 16.313 5.99631 16.313C8.3197 16.313 9.94336 15.139 9.94336 13.1901C9.94336 7.99388 1.14937 10.3918 1.14937 4.27166C1.14937 1.67356 3.19804 0 6.0961 0C8.2698 0 10.0431 0.899296 11.2172 2.42317L10.2926 3.32247C9.21839 1.97352 7.89409 1.22391 6.07085 1.22391C3.9224 1.22391 2.49832 2.34803 2.49832 4.19652C2.49832 9.06811 11.2671 6.76997 11.2671 13.0404C11.2671 15.9385 9.21839 17.5375 5.94582 17.5375C3.29782 17.5375 1.39884 16.4885 0 14.6647L0.000601721 14.6641Z" fill="var(--fill-0, #F7FAFC)"/>
<path id="Vector_2" d="M12.9911 11.4659C12.9911 8.04306 15.5393 5.42031 18.9369 5.42031C22.0845 5.42031 24.3333 7.71845 24.3333 10.9664C24.3333 11.1659 24.3081 11.4912 24.2335 11.9408H14.2908C14.5156 14.6141 16.414 16.3375 19.1624 16.3375C20.661 16.3375 21.9853 15.7881 22.8599 14.6886L23.7093 15.5127C22.6351 16.7872 20.9616 17.5362 19.0878 17.5362C15.5904 17.5362 12.9923 14.9381 12.9923 11.4653L12.9911 11.4659ZM14.2902 10.8413H23.0842C23.0343 8.29313 21.4106 6.59432 18.9123 6.59432C16.414 6.59432 14.5156 8.29313 14.2908 10.8413H14.2902Z" fill="var(--fill-0, #F7FAFC)"/>
<path id="Vector_3" d="M25.9065 11.3162C25.9065 7.96852 28.3549 5.42031 31.6275 5.42031C33.7008 5.42031 35.3996 6.39475 36.249 8.01841V5.67038H37.5228V16.837C37.5228 20.2094 35.0744 22.4583 31.4273 22.4583C29.1538 22.4583 27.2554 21.5836 26.1559 19.9852L26.9554 19.1857C27.8547 20.4595 29.4285 21.259 31.4519 21.259C34.3999 21.259 36.2484 19.5602 36.2484 16.837V14.6135C35.399 16.2371 33.7501 17.2116 31.6767 17.2116C28.3543 17.2116 25.9059 14.7132 25.9059 11.3156L25.9065 11.3162ZM36.3241 11.3162C36.3241 8.5432 34.5003 6.61957 31.8523 6.61957C29.2043 6.61957 27.2055 8.56845 27.2055 11.291C27.2055 14.0135 29.1544 16.0375 31.9022 16.0375C34.65 16.0375 36.3241 14.1638 36.3241 11.3156V11.3162Z" fill="var(--fill-0, #F7FAFC)"/>
<path id="Vector_4" d="M40.3956 12.4403V5.67035H41.6694V12.3904C41.6694 14.7385 43.0682 16.3375 45.2167 16.3375C47.3651 16.3375 48.7393 14.7637 48.7393 12.3904V5.67035H50.0137V12.4403C50.0137 15.4382 48.0402 17.5367 45.2173 17.5367C42.3944 17.5367 40.3956 15.4634 40.3956 12.4403Z" fill="var(--fill-0, #F7FAFC)"/>
<path id="Vector_5" d="M52.8866 5.67038H54.1604V7.36919C54.8601 6.12003 56.084 5.42031 57.6079 5.42031C58.7572 5.42031 59.7311 5.79482 60.5558 6.69411L59.7064 7.59341C59.0818 6.91894 58.3575 6.61897 57.383 6.61897C55.4847 6.61897 54.1604 7.94327 54.1604 10.3412V17.2861H52.8866V5.67038Z" fill="var(--fill-0, #F7FAFC)"/>
<path id="Vector_6" d="M60.8552 11.441C60.8552 8.04342 63.4786 5.42068 66.8756 5.42068C70.2726 5.42068 72.8713 8.04403 72.8713 11.441C72.8713 14.838 70.2233 17.5365 66.8756 17.5365C63.5279 17.5365 60.8552 14.8633 60.8552 11.441ZM71.5476 11.4158C71.5476 8.668 69.5488 6.61934 66.8762 6.61934C64.2035 6.61934 62.1549 8.69265 62.1549 11.441C62.1549 14.1894 64.1783 16.3373 66.8762 16.3373C69.5741 16.3373 71.5476 14.2387 71.5476 11.4158Z" fill="var(--fill-0, #F7FAFC)"/>
<path id="Vector_7" d="M74.2208 15.4382L75.0702 14.5888C76.0194 15.8127 77.2686 16.3874 78.7678 16.3874C80.4919 16.3874 81.5661 15.6378 81.5661 14.3886C81.5661 10.991 74.9458 12.765 74.9458 8.51795C74.9458 6.66947 76.4198 5.42031 78.7931 5.42031C80.4919 5.42031 81.9658 6.04489 82.79 7.19426L81.9658 8.04366C81.2914 7.11911 80.1174 6.56968 78.7179 6.56968C77.0444 6.56968 76.1697 7.36919 76.1697 8.44341C76.1697 11.5663 82.79 9.8176 82.79 14.2642C82.79 16.263 81.191 17.5368 78.7432 17.5368C76.8448 17.5368 75.2458 16.7126 74.2214 15.4382H74.2208Z" fill="var(--fill-0, #F7FAFC)"/>
</g>
</svg>
