<svg preserveAspectRatio="none" width="100%" height="100%" overflow="visible" style="display: block;" viewBox="0 0 49.822 19.323" fill="none" xmlns="http://www.w3.org/2000/svg">
<g id="Group">
<path id="Vector" d="M11.7522 11.6783V17.7792C11.7522 18.7999 11.1047 19.3229 10.2584 19.3229C9.41196 19.3229 8.78918 18.7999 8.78918 17.7792V11.9524C8.78918 9.8358 7.44444 8.71529 5.87609 8.71529C4.30773 8.71529 2.96299 9.8358 2.96299 11.9524V17.7792C2.96299 18.7999 2.31557 19.3229 1.49382 19.3229C0.672069 19.3229 5.74239e-07 18.7999 5.74239e-07 17.7792V11.6783C5.74239e-07 7.76911 2.83856 5.80159 5.87669 5.80159C8.91482 5.80159 11.7534 7.7685 11.7534 11.6783H11.7522Z" fill="var(--fill-0, #F7FAFC)"/>
<path id="Vector_2" d="M25.9942 1.54374V12.8487C25.9942 17.032 23.3047 19.3229 19.6444 19.3229C15.9841 19.3229 12.8468 17.1065 12.8468 12.5499C12.8468 8.8397 15.4365 6.0258 19.4701 6.0258H20.6153C21.5615 6.0258 22.0345 6.69786 22.0345 7.47032C22.0345 8.24278 21.5615 8.93949 20.6153 8.93949H19.4701C17.2044 8.93949 15.9096 10.4087 15.9096 12.5499C15.9096 15.1396 17.6276 16.4092 19.4954 16.4092C21.3631 16.4092 23.0312 15.1143 23.0312 12.5499V1.54374C23.0312 0.523015 23.6786 2.87256e-05 24.525 2.87256e-05C25.3714 2.87256e-05 25.9942 0.523015 25.9942 1.54374Z" fill="var(--fill-0, #F7FAFC)"/>
<path id="Vector_3" d="M40.261 12.2759V17.7787C40.261 18.7994 39.6136 19.3224 38.7918 19.3224C37.9701 19.3224 37.298 18.7994 37.298 17.7787V12.5494C37.298 10.0096 35.5799 8.71479 33.7621 8.71479C31.9443 8.71479 30.1764 9.98498 30.1764 12.5741C30.1764 14.7153 31.4712 16.1845 33.7369 16.1845H34.882C35.8282 16.1845 36.3013 16.8818 36.3013 17.6537C36.3013 18.4255 35.8282 19.0976 34.882 19.0976H33.7369C29.7033 19.0976 27.1136 16.2837 27.1136 12.5735C27.1136 8.01687 30.3753 5.80049 33.9112 5.80049C37.4471 5.80049 40.261 8.09141 40.261 12.2747V12.2759Z" fill="var(--fill-0, #F7FAFC)"/>
<path id="Vector_4" d="M49.822 7.47041C49.822 8.24227 49.3489 8.93959 48.4274 8.93959H47.5058C45.9621 8.93959 44.6673 9.83588 44.6673 11.9525V17.7793C44.6673 18.8 44.0198 19.323 43.1981 19.323C42.3763 19.323 41.7043 18.8 41.7043 17.7793V11.6784C41.7043 7.76918 44.4683 6.02589 47.5058 6.02589H48.4274C49.3489 6.02589 49.822 6.69796 49.822 7.47041Z" fill="var(--fill-0, #F7FAFC)"/>
</g>
</svg>
